<svg width="24" height="24" viewBox="0 0 1243 1024" fill="none" xmlns="http://www.w3.org/2000/svg">
<g clip-path="url(#clip0_53_2)">
<path d="M702.834 511.136L823.952 649.58L986.831 753.655L1015.16 512.01L986.831 275.815L820.832 367.243L702.834 511.136Z" fill="#00832D"/>
<path d="M0.000976562 731.166V937.082C0.000976562 984.098 38.1656 1022.27 85.192 1022.27H291.108L333.747 866.688L291.108 731.166L149.835 688.526L0.00582964 731.166H0.000976562Z" fill="#0066DA"/>
<path d="M291.108 0L0.000976562 291.107L149.845 333.644L291.108 291.107L332.971 157.429L291.108 0Z" fill="#E94235"/>
<path d="M0.00585938 731.258H291.108V291.103H0.00585938V731.258Z" fill="#2684FC"/>
<path d="M1172.79 123.258L986.826 275.82V753.654L1173.56 906.807C1201.51 928.705 1242.4 908.749 1242.4 873.214V156.172C1242.4 120.244 1200.54 100.386 1172.79 123.263" fill="#00AC47"/>
<path d="M702.833 511.136V731.165H291.107V1022.27H901.644C948.671 1022.27 986.83 984.098 986.83 937.081V753.654L702.833 511.136Z" fill="#00AC47"/>
<path d="M901.644 0H291.107V291.107H702.833V511.136L986.835 275.81V85.1958C986.835 38.1695 948.671 0.00485308 901.644 0.00485308" fill="#FFBA00"/>
</g>
<defs>
<clipPath id="clip0_53_2">
<rect width="1242.39" height="1024" fill="white"/>
</clipPath>
</defs>
</svg>
