<svg width="24" height="24" viewBox="0 0 1024 1024" fill="none" xmlns="http://www.w3.org/2000/svg">
<path d="M512.001 640C524.09 640 534.23 635.904 542.422 627.712C550.614 619.52 554.696 609.394 554.667 597.333C554.667 585.244 550.571 575.104 542.379 566.912C534.187 558.72 524.061 554.638 512.001 554.666C499.912 554.666 489.771 558.762 481.579 566.954C473.387 575.146 469.306 585.273 469.334 597.333C469.334 609.422 473.43 619.562 481.622 627.754C489.814 635.946 499.94 640.028 512.001 640ZM469.334 469.333H554.667V213.333H469.334V469.333ZM85.334 938.666V170.666C85.334 147.2 93.6967 127.104 110.422 110.378C127.147 93.6531 147.229 85.3046 170.667 85.3331H853.334C876.801 85.3331 896.897 93.6957 913.622 110.421C930.347 127.146 938.696 147.228 938.667 170.666V682.666C938.667 706.133 930.305 726.229 913.579 742.954C896.854 759.68 876.772 768.028 853.334 768H256.001L85.334 938.666ZM219.734 682.666H853.334V170.666H170.667V730.666L219.734 682.666Z" fill="black"/>
</svg>
