<svg width="24" height="24" viewBox="0 0 1024 1024" fill="none" xmlns="http://www.w3.org/2000/svg">
<path d="M509.867 768C524.801 768 537.43 762.837 547.755 752.512C558.081 742.186 563.229 729.571 563.201 714.666C563.201 699.733 558.052 687.104 547.755 676.778C537.458 666.453 524.829 661.305 509.867 661.333C494.934 661.333 482.319 666.496 472.022 676.821C461.725 687.146 456.562 699.761 456.534 714.666C456.534 729.6 461.697 742.229 472.022 752.554C482.347 762.88 494.962 768.028 509.867 768ZM471.467 603.733H550.401C550.401 580.266 553.074 561.777 558.422 548.266C563.77 534.755 578.874 516.266 603.734 492.8C622.223 474.311 636.801 456.704 647.467 439.978C658.134 423.253 663.467 403.171 663.467 379.733C663.467 339.911 648.89 309.333 619.734 288C590.578 266.666 556.09 256 516.267 256C475.734 256 442.838 266.666 417.579 288C392.321 309.333 374.728 334.933 364.801 364.8L435.201 392.533C438.756 379.733 446.763 365.866 459.222 350.933C471.681 336 490.696 328.533 516.267 328.533C539.023 328.533 556.09 334.762 567.467 347.221C578.845 359.68 584.534 373.361 584.534 388.266C584.534 402.489 580.267 415.829 571.734 428.288C563.201 440.746 552.534 452.295 539.734 462.933C508.445 490.666 489.245 511.644 482.134 525.866C475.023 540.089 471.467 566.044 471.467 603.733ZM512.001 938.666C452.978 938.666 397.512 927.459 345.601 905.045C293.69 882.631 248.534 852.238 210.134 813.866C171.734 775.466 141.341 730.311 118.955 678.4C96.5695 626.489 85.3624 571.022 85.334 512C85.334 452.977 96.5411 397.511 118.955 345.6C141.37 293.689 171.762 248.533 210.134 210.133C248.534 171.733 293.69 141.34 345.601 118.954C397.512 96.5686 452.978 85.3615 512.001 85.333C571.023 85.333 626.49 96.5401 678.401 118.954C730.312 141.369 775.467 171.761 813.867 210.133C852.267 248.533 882.674 293.689 905.089 345.6C927.503 397.511 938.696 452.977 938.667 512C938.667 571.022 927.46 626.489 905.046 678.4C882.632 730.311 852.239 775.466 813.867 813.866C775.467 852.266 730.312 882.673 678.401 905.088C626.49 927.502 571.023 938.695 512.001 938.666ZM512.001 853.333C607.29 853.333 688.001 820.266 754.134 754.133C820.267 688 853.334 607.289 853.334 512C853.334 416.711 820.267 336 754.134 269.866C688.001 203.733 607.29 170.666 512.001 170.666C416.712 170.666 336.001 203.733 269.867 269.866C203.734 336 170.667 416.711 170.667 512C170.667 607.289 203.734 688 269.867 754.133C336.001 820.266 416.712 853.333 512.001 853.333Z" fill="black"/>
</svg>
