<svg width="24" height="24" viewBox="0 0 1024 1024" fill="none" xmlns="http://www.w3.org/2000/svg">
<path d="M298.667 384C298.667 395.316 294.172 406.168 286.171 414.17C278.169 422.171 267.317 426.666 256.001 426.666C244.685 426.666 233.832 422.171 225.831 414.17C217.829 406.168 213.334 395.316 213.334 384C213.334 372.684 217.829 361.831 225.831 353.83C233.832 345.828 244.685 341.333 256.001 341.333C267.317 341.333 278.169 345.828 286.171 353.83C294.172 361.831 298.667 372.684 298.667 384ZM298.667 512C298.667 523.316 294.172 534.168 286.171 542.17C278.169 550.171 267.317 554.666 256.001 554.666C244.685 554.666 233.832 550.171 225.831 542.17C217.829 534.168 213.334 523.316 213.334 512C213.334 500.684 217.829 489.831 225.831 481.83C233.832 473.828 244.685 469.333 256.001 469.333C267.317 469.333 278.169 473.828 286.171 481.83C294.172 489.831 298.667 500.684 298.667 512ZM426.667 512C426.667 523.316 422.172 534.168 414.171 542.17C406.169 550.171 395.317 554.666 384.001 554.666C372.685 554.666 361.832 550.171 353.831 542.17C345.829 534.168 341.334 523.316 341.334 512C341.334 500.684 345.829 489.831 353.831 481.83C361.832 473.828 372.685 469.333 384.001 469.333C395.317 469.333 406.169 473.828 414.171 481.83C422.172 489.831 426.667 500.684 426.667 512ZM426.667 384C426.667 395.316 422.172 406.168 414.171 414.17C406.169 422.171 395.317 426.666 384.001 426.666C372.685 426.666 361.832 422.171 353.831 414.17C345.829 406.168 341.334 395.316 341.334 384C341.334 372.684 345.829 361.831 353.831 353.83C361.832 345.828 372.685 341.333 384.001 341.333C395.317 341.333 406.169 345.828 414.171 353.83C422.172 361.831 426.667 372.684 426.667 384ZM554.667 384C554.667 395.316 550.172 406.168 542.171 414.17C534.169 422.171 523.317 426.666 512.001 426.666C500.685 426.666 489.832 422.171 481.831 414.17C473.829 406.168 469.334 395.316 469.334 384C469.334 372.684 473.829 361.831 481.831 353.83C489.832 345.828 500.685 341.333 512.001 341.333C523.317 341.333 534.169 345.828 542.171 353.83C550.172 361.831 554.667 372.684 554.667 384ZM554.667 512C554.667 523.316 550.172 534.168 542.171 542.17C534.169 550.171 523.317 554.666 512.001 554.666C500.685 554.666 489.832 550.171 481.831 542.17C473.829 534.168 469.334 523.316 469.334 512C469.334 500.684 473.829 489.831 481.831 481.83C489.832 473.828 500.685 469.333 512.001 469.333C523.317 469.333 534.169 473.828 542.171 481.83C550.172 489.831 554.667 500.684 554.667 512ZM682.667 384C682.667 395.316 678.172 406.168 670.171 414.17C662.169 422.171 651.317 426.666 640.001 426.666C628.685 426.666 617.832 422.171 609.831 414.17C601.829 406.168 597.334 395.316 597.334 384C597.334 372.684 601.829 361.831 609.831 353.83C617.832 345.828 628.685 341.333 640.001 341.333C651.317 341.333 662.169 345.828 670.171 353.83C678.172 361.831 682.667 372.684 682.667 384ZM682.667 512C682.667 523.316 678.172 534.168 670.171 542.17C662.169 550.171 651.317 554.666 640.001 554.666C628.685 554.666 617.832 550.171 609.831 542.17C601.829 534.168 597.334 523.316 597.334 512C597.334 500.684 601.829 489.831 609.831 481.83C617.832 473.828 628.685 469.333 640.001 469.333C651.317 469.333 662.169 473.828 670.171 481.83C678.172 489.831 682.667 500.684 682.667 512ZM810.667 384C810.667 395.316 806.172 406.168 798.171 414.17C790.169 422.171 779.317 426.666 768.001 426.666C756.685 426.666 745.832 422.171 737.831 414.17C729.829 406.168 725.334 395.316 725.334 384C725.334 372.684 729.829 361.831 737.831 353.83C745.832 345.828 756.685 341.333 768.001 341.333C779.317 341.333 790.169 345.828 798.171 353.83C806.172 361.831 810.667 372.684 810.667 384ZM810.667 512C810.667 523.316 806.172 534.168 798.171 542.17C790.169 550.171 779.317 554.666 768.001 554.666C756.685 554.666 745.832 550.171 737.831 542.17C729.829 534.168 725.334 523.316 725.334 512C725.334 500.684 729.829 489.831 737.831 481.83C745.832 473.828 756.685 469.333 768.001 469.333C779.317 469.333 790.169 473.828 798.171 481.83C806.172 489.831 810.667 500.684 810.667 512Z" fill="black"/>
<path fill-rule="evenodd" clip-rule="evenodd" d="M338.987 181.333H685.014C743.339 181.333 790.401 181.333 827.393 186.325C865.793 191.445 898.134 202.538 923.819 228.181C949.505 253.866 960.513 286.208 965.718 324.608C970.667 361.6 970.667 408.661 970.667 466.986V557.013C970.667 615.338 970.667 662.4 965.718 699.392C960.513 737.792 949.505 770.133 923.819 795.818C898.134 821.504 865.793 832.512 827.393 837.717C790.401 842.666 743.339 842.666 685.014 842.666H338.987C280.662 842.666 233.601 842.666 196.609 837.717C158.209 832.512 125.867 821.504 100.182 795.818C74.4967 770.133 63.4887 737.792 58.326 699.392C53.334 662.4 53.334 615.338 53.334 557.013V466.986C53.334 408.661 53.334 361.6 58.326 324.608C63.446 286.208 74.5393 253.866 100.182 228.181C125.867 202.496 158.209 191.488 196.609 186.325C233.601 181.333 280.662 181.333 338.987 181.333ZM205.142 249.728C173.825 253.952 157.27 261.674 145.451 273.45C133.633 285.269 125.953 301.824 121.729 333.184C117.419 365.354 117.334 408.106 117.334 469.333V554.666C117.334 615.893 117.419 658.645 121.729 690.858C125.953 722.176 133.675 738.73 145.451 750.549C157.27 762.368 173.825 770.048 205.185 774.272C237.355 778.581 280.107 778.666 341.334 778.666H682.667C743.894 778.666 786.603 778.581 818.859 774.272C850.177 770.048 866.731 762.325 878.55 750.549C890.369 738.73 898.049 722.176 902.273 690.816C906.582 658.645 906.667 615.893 906.667 554.666V469.333C906.667 408.106 906.582 365.354 902.273 333.141C898.049 301.824 890.326 285.269 878.55 273.45C866.731 261.632 850.177 253.952 818.817 249.728C786.603 245.418 743.894 245.333 682.667 245.333H341.334C280.107 245.333 237.355 245.418 205.142 249.728ZM266.667 682.666C266.667 674.179 270.039 666.04 276.04 660.039C282.041 654.038 290.18 650.666 298.667 650.666H725.334C733.821 650.666 741.96 654.038 747.961 660.039C753.963 666.04 757.334 674.179 757.334 682.666C757.334 691.153 753.963 699.293 747.961 705.294C741.96 711.295 733.821 714.666 725.334 714.666H298.667C290.18 714.666 282.041 711.295 276.04 705.294C270.039 699.293 266.667 691.153 266.667 682.666Z" fill="black"/>
</svg>
