<svg width="24" height="24" viewBox="0 0 1024 1024" fill="none" xmlns="http://www.w3.org/2000/svg">
<path d="M298.668 170.667V853.334M298.668 170.667L104.534 366.08M298.668 170.667H693.334C708.903 172.294 723.44 179.223 734.509 190.292C745.578 201.361 752.507 215.898 754.134 231.467V791.68C752.692 807.402 745.846 822.139 734.76 833.38C723.674 844.621 709.035 851.673 693.334 853.334H165.334C157.245 853.452 149.215 851.932 141.729 848.865C134.242 845.797 127.454 841.246 121.773 835.486C116.093 829.725 111.637 822.874 108.674 815.346C105.711 807.818 104.303 799.767 104.534 791.68V366.08M104.534 366.08H571.521V657.92H104.534M875.734 268.8C910.508 241.067 936.534 263.894 936.534 293.12V730.88C936.534 767.787 910.508 782.934 875.734 755.2L571.521 512L875.734 268.8Z" stroke="white" stroke-width="21.3333" stroke-linecap="round" stroke-linejoin="round"/>
</svg>
