<svg  width="24" height="24" viewBox="0 0 1024 1024" fill="none" xmlns="http://www.w3.org/2000/svg">
<path fill-rule="evenodd" clip-rule="evenodd" d="M682.665 384.001C682.665 429.264 664.684 472.674 632.678 504.68C600.672 536.686 557.262 554.667 511.999 554.667C466.735 554.667 423.325 536.686 391.319 504.68C359.313 472.674 341.332 429.264 341.332 384.001C341.332 338.737 359.313 295.327 391.319 263.321C423.325 231.315 466.735 213.334 511.999 213.334C557.262 213.334 600.672 231.315 632.678 263.321C664.684 295.327 682.665 338.737 682.665 384.001ZM597.332 384.001C597.332 406.632 588.342 428.337 572.338 444.34C556.335 460.344 534.631 469.334 511.999 469.334C489.367 469.334 467.662 460.344 451.659 444.34C435.656 428.337 426.665 406.632 426.665 384.001C426.665 361.369 435.656 339.664 451.659 323.661C467.662 307.658 489.367 298.667 511.999 298.667C534.631 298.667 556.335 307.658 572.338 323.661C588.342 339.664 597.332 361.369 597.332 384.001Z" fill="black"/>
<path fill-rule="evenodd" clip-rule="evenodd" d="M511.999 42.667C252.799 42.667 42.666 252.8 42.666 512C42.666 771.2 252.799 981.334 511.999 981.334C771.199 981.334 981.333 771.2 981.333 512C981.333 252.8 771.199 42.667 511.999 42.667ZM127.999 512C127.999 601.174 158.421 683.264 209.407 748.459C245.215 701.436 291.408 663.328 344.381 637.112C397.353 610.896 455.668 597.282 514.773 597.334C573.112 597.278 630.694 610.54 683.132 636.108C735.57 661.677 781.481 698.877 817.365 744.875C854.333 696.389 879.224 639.796 889.979 579.78C900.733 519.764 897.042 458.05 879.21 399.744C861.378 341.438 829.918 288.216 787.433 244.482C744.949 200.748 692.661 167.76 634.896 148.246C577.131 128.732 515.549 123.255 455.247 132.266C394.944 141.277 337.654 164.518 288.117 200.067C238.581 235.615 198.221 282.448 170.377 336.691C142.534 390.935 128.007 451.028 127.999 512ZM511.999 896C423.848 896.133 338.357 865.807 269.994 810.155C297.511 770.762 334.136 738.6 376.754 716.403C419.372 694.206 466.721 682.633 514.773 682.667C562.225 682.629 609.001 693.913 651.218 715.581C693.434 737.249 729.871 768.677 757.503 807.254C688.609 864.713 601.71 896.126 511.999 896Z" fill="black"/>
</svg>
