<svg width="24" height="24" viewBox="0 0 1024 1024" fill="none" xmlns="http://www.w3.org/2000/svg">
<path d="M924.799 625.7L859.299 569.7C862.399 550.7 863.999 531.3 863.999 511.9C863.999 492.5 862.399 473.1 859.299 454.1L924.799 398.1C929.739 393.87 933.275 388.237 934.937 381.949C936.598 375.662 936.306 369.017 934.099 362.9L933.199 360.3C915.167 309.902 888.165 263.183 853.499 222.4L851.699 220.3C847.494 215.355 841.889 211.8 835.623 210.104C829.357 208.408 822.724 208.651 816.599 210.8L735.299 239.7C705.299 215.1 671.799 195.7 635.599 182.1L619.899 97.0996C618.715 90.7038 615.612 84.8199 611.004 80.2294C606.395 75.6389 600.499 72.5593 594.099 71.3996L591.399 70.8996C539.299 61.4996 484.499 61.4996 432.399 70.8996L429.699 71.3996C423.299 72.5593 417.403 75.6389 412.794 80.2294C408.186 84.8199 405.084 90.7038 403.899 97.0996L388.099 182.5C352.188 196.102 318.746 215.492 289.099 239.9L207.199 210.8C201.076 208.634 194.438 208.383 188.169 210.08C181.899 211.776 176.294 215.341 172.099 220.3L170.299 222.4C135.674 263.212 108.677 309.923 90.599 360.3L89.699 362.9C85.199 375.4 88.899 389.4 98.999 398.1L165.299 454.7C162.199 473.5 160.699 492.7 160.699 511.8C160.699 531 162.199 550.2 165.299 568.9L98.999 625.5C94.0586 629.729 90.5227 635.362 88.8614 641.65C87.2002 647.938 87.4923 654.582 89.699 660.7L90.599 663.3C108.699 713.7 135.499 760.2 170.299 801.2L172.099 803.3C176.304 808.244 181.909 811.799 188.175 813.495C194.441 815.191 201.074 814.948 207.199 812.8L289.099 783.7C318.899 808.2 352.199 827.6 388.099 841.1L403.899 926.5C405.084 932.895 408.186 938.779 412.794 943.37C417.403 947.96 423.299 951.04 429.699 952.2L432.399 952.7C484.978 962.15 538.82 962.15 591.399 952.7L594.099 952.2C600.499 951.04 606.395 947.96 611.004 943.37C615.612 938.779 618.715 932.895 619.899 926.5L635.599 841.5C671.784 827.935 705.473 808.472 735.299 783.9L816.599 812.8C822.722 814.965 829.36 815.217 835.63 813.52C841.899 811.823 847.504 808.258 851.699 803.3L853.499 801.2C888.299 760.1 915.099 713.7 933.199 663.3L934.099 660.7C938.599 648.4 934.899 634.4 924.799 625.7ZM788.299 465.9C790.799 481 792.099 496.5 792.099 512C792.099 527.5 790.799 543 788.299 558.1L781.699 598.2L856.399 662.1C845.075 688.189 830.78 712.885 813.799 735.7L720.999 702.8L689.599 728.6C665.699 748.2 639.099 763.6 610.299 774.4L572.199 788.7L554.299 885.7C526.056 888.9 497.542 888.9 469.299 885.7L451.399 788.5L413.599 774C385.099 763.2 358.599 747.8 334.899 728.3L303.499 702.4L210.099 735.6C193.099 712.7 178.899 688 167.499 662L242.999 597.5L236.499 557.5C234.099 542.6 232.799 527.2 232.799 512C232.799 496.7 233.999 481.4 236.499 466.5L242.999 426.5L167.499 362C178.799 335.9 193.099 311.3 210.099 288.4L303.499 321.6L334.899 295.7C358.599 276.2 385.099 260.8 413.599 250L451.499 235.7L469.399 138.5C497.499 135.3 526.199 135.3 554.399 138.5L572.299 235.5L610.399 249.8C639.099 260.6 665.799 276 689.699 295.6L721.099 321.4L813.899 288.5C830.899 311.4 845.099 336.1 856.499 362.1L781.799 426L788.299 465.9ZM511.999 326C414.799 326 335.999 404.8 335.999 502C335.999 599.2 414.799 678 511.999 678C609.199 678 687.999 599.2 687.999 502C687.999 404.8 609.199 326 511.999 326ZM591.199 581.2C580.811 591.617 568.466 599.878 554.874 605.507C541.282 611.136 526.711 614.023 511.999 614C482.099 614 453.999 602.3 432.799 581.2C422.381 570.812 414.12 558.467 408.491 544.875C402.862 531.282 399.976 516.711 399.999 502C399.999 472.1 411.699 444 432.799 422.8C453.999 401.6 482.099 390 511.999 390C541.899 390 569.999 401.6 591.199 422.8C601.617 433.187 609.878 445.533 615.507 459.125C621.136 472.717 624.022 487.288 623.999 502C623.999 531.9 612.299 560 591.199 581.2Z" fill="black"/>
</svg>
